<svg width="52" height="53" viewBox="0 0 52 53" fill="none" xmlns="http://www.w3.org/2000/svg">
<path d="M36.6667 16.1026L15.3333 37.436L36.6667 16.1026ZM15.3334 16.1026L36.6667 37.436L15.3334 16.1026ZM50 26.7693C50 40.0242 39.2549 50.7693 26 50.7693C12.7452 50.7693 2 40.0242 2 26.7693C2 13.5145 12.7452 2.76929 26 2.76929C39.2549 2.76929 50 13.5145 50 26.7693Z" fill="white"/>
<path d="M36.6667 16.1026L15.3333 37.436M15.3334 16.1026L36.6667 37.436M50 26.7693C50 40.0242 39.2549 50.7693 26 50.7693C12.7452 50.7693 2 40.0242 2 26.7693C2 13.5145 12.7452 2.76929 26 2.76929C39.2549 2.76929 50 13.5145 50 26.7693Z" stroke="#14BBBB" stroke-width="4" stroke-linecap="round" stroke-linejoin="round"/>
</svg>
