<svg width="52" height="52" viewBox="0 0 52 52" fill="none" xmlns="http://www.w3.org/2000/svg">
<path d="M50 26C50 39.2549 39.2549 50 26 50C12.7452 50 2 39.2549 2 26C2 12.7452 12.7452 2 26 2C39.2549 2 50 12.7452 50 26Z" fill="white"/>
<path fill-rule="evenodd" clip-rule="evenodd" d="M26 4C13.8497 4 4 13.8497 4 26C4 38.1504 13.8497 48 26 48C38.1504 48 48 38.1504 48 26C48 13.8497 38.1504 4 26 4ZM0 26C0 11.6406 11.6406 0 26 0C40.3595 0 52 11.6406 52 26C52 40.3595 40.3595 52 26 52C11.6406 52 0 40.3595 0 26Z" fill="#14BBBB"/>
<path d="M34.412 16.7614L35.2396 17.5892C35.8826 18.2324 35.8826 19.2724 35.2396 19.9087L33.2491 21.9065L30.0958 18.7524L32.0863 16.7614C32.7293 16.1182 33.769 16.1182 34.4051 16.7614H34.412ZM18.5975 30.2606L27.777 21.0718L30.9303 24.2259L21.744 33.4079C21.5456 33.6063 21.2994 33.75 21.0326 33.8252L17.0311 34.9678L18.1734 30.9653C18.2487 30.6984 18.3923 30.4521 18.5907 30.2537L18.5975 30.2606ZM29.7675 14.4419L16.2718 27.9343C15.6768 28.5295 15.2458 29.2616 15.0201 30.0621L13.0638 36.9041C12.8996 37.4788 13.057 38.0946 13.4811 38.5188C13.9052 38.943 14.5208 39.1004 15.0953 38.9362L21.9355 36.9794C22.7426 36.7467 23.4745 36.3157 24.0628 35.7273L37.5584 22.2349C39.4805 20.3123 39.4805 17.1924 37.5584 15.2698L36.7308 14.4419C34.8087 12.5194 31.6896 12.5194 29.7675 14.4419Z" fill="#14BBBB"/>
</svg>
