<svg width="36" height="36" viewBox="0 0 36 36" fill="none" xmlns="http://www.w3.org/2000/svg">
<path d="M34.8677 6.74656C36.2343 5.38002 36.2343 3.16074 34.8677 1.7942C33.5012 0.42765 31.2819 0.42765 29.9154 1.7942L18.4036 13.3169L6.88084 1.80513C5.51429 0.438583 3.29502 0.438583 1.92847 1.80513C0.561928 3.17168 0.561928 5.39095 1.92847 6.75749L13.4512 18.2693L1.93941 29.792C0.57286 31.1586 0.57286 33.3778 1.93941 34.7444C3.30595 36.1109 5.52523 36.1109 6.89177 34.7444L18.4036 23.2216L29.9263 34.7334C31.2928 36.1 33.5121 36.1 34.8787 34.7334C36.2452 33.3669 36.2452 31.1476 34.8787 29.7811L23.3559 18.2693L34.8677 6.74656Z" fill="white"/>
</svg>
