<svg width="200" height="64" viewBox="0 0 200 64" fill="none" xmlns="http://www.w3.org/2000/svg">
<path d="M66.1172 27.8749C64.1706 27.8749 62.4312 27.5229 60.8988 26.8188C59.3664 26.1147 58.1654 25.0897 57.2956 23.7437C56.4259 22.3977 55.991 20.7514 55.991 18.8049C55.991 17.3553 56.2499 16.0404 56.7676 14.86C57.2853 13.659 58.0101 12.6339 58.9419 11.7849C59.8945 10.9152 61.023 10.2525 62.3276 9.79696C63.6529 9.32068 65.1232 9.08254 66.7384 9.08254C67.6495 9.08254 68.5814 9.17572 69.534 9.36209C70.4865 9.54846 71.2838 9.79696 71.9257 10.1076L72.081 14.3941L70.3416 14.4873L69.3787 11.6607C68.9645 11.4122 68.4779 11.2361 67.9188 11.1326C67.3803 11.0291 66.8834 10.9773 66.4278 10.9773C65.0818 10.9773 63.9532 11.2776 63.0421 11.8781C62.1516 12.4786 61.4786 13.3069 61.023 14.363C60.5882 15.4191 60.3707 16.6409 60.3707 18.0283C60.3707 19.6849 60.6503 21.1138 61.2094 22.3148C61.7892 23.4952 62.5554 24.396 63.508 25.0172C64.4813 25.6384 65.5581 25.9491 66.7384 25.9491C67.1319 25.9491 67.5771 25.8973 68.0741 25.7938C68.571 25.6695 69.0163 25.4728 69.4097 25.2036L68.7885 26.912V23.6194C68.7885 23.1017 68.7781 22.5944 68.7574 22.0974C68.7367 21.5797 68.7056 21.1863 68.6642 20.9171L66.4899 20.5133L66.5831 19.0223H73.7584L73.8515 20.4511L72.3606 20.886C72.3399 21.031 72.3295 21.3209 72.3295 21.7557C72.3502 22.1906 72.3606 22.6669 72.3606 23.1846C72.3606 23.5987 72.3709 24.0439 72.3916 24.5202C72.4124 24.9758 72.4331 25.5349 72.4538 26.1976C71.584 26.736 70.5797 27.1501 69.4408 27.44C68.3226 27.7299 67.2147 27.8749 66.1172 27.8749ZM75.6221 27.5953L75.5289 26.2597L77.4547 25.7627C77.4754 25.6799 77.4961 25.5038 77.5168 25.2346C77.5375 24.9654 77.5582 24.6134 77.579 24.1785C77.5997 23.723 77.61 23.1949 77.61 22.5944L77.6411 20.2337C77.6411 19.5918 77.6204 19.0016 77.579 18.4632C77.5375 17.9041 77.4651 17.3864 77.3615 16.9101L75.3736 16.4752V15.2017L80.3745 13.866L81.0579 14.363L80.9336 16.848L81.0268 16.879C81.6273 15.7194 82.2382 14.9325 82.8595 14.5183C83.4807 14.1042 84.1019 13.8971 84.7232 13.8971C85.2616 13.8971 85.7171 14.0421 86.0899 14.332C86.4833 14.6219 86.68 15.0671 86.68 15.6676C86.68 16.2682 86.473 16.7341 86.0588 17.0654C85.6447 17.3967 85.1477 17.5624 84.5678 17.5624C84.1123 17.5624 83.6981 17.4796 83.3254 17.3139C82.9526 17.1482 82.5592 16.8687 82.145 16.4752L82.8905 16.5684C82.5592 16.8169 82.2382 17.1379 81.9276 17.5313C81.617 17.9041 81.3374 18.3493 81.0889 18.867L81.12 21.4451C81.1407 22.1285 81.1614 22.7704 81.1821 23.3709C81.2028 23.9508 81.2235 24.4581 81.2442 24.893C81.2649 25.3071 81.2857 25.597 81.3064 25.7627L84.0087 26.1976L83.9156 27.5953H75.6221ZM92.3333 27.8438C91.4014 27.8438 90.5938 27.6471 89.9105 27.2537C89.2478 26.8602 88.7405 26.3839 88.3884 25.8248C88.0364 25.2657 87.8604 24.7273 87.8604 24.2096C87.8604 23.4848 88.0882 22.8843 88.5438 22.408C88.9993 21.911 89.7241 21.5072 90.7181 21.1966L95.5637 19.7057V18.4321C95.5637 17.9765 95.4188 17.552 95.1288 17.1586C94.8389 16.7651 94.4558 16.4442 93.9796 16.1957C93.5033 15.9472 92.9856 15.8229 92.4265 15.8229C92.033 15.8229 91.7535 15.9161 91.5878 16.1025C91.4428 16.2682 91.3497 16.6098 91.3082 17.1275L91.184 18.8049C90.2521 19.0119 89.4756 18.9912 88.8544 18.7427C88.2538 18.4735 87.9536 18.0387 87.9536 17.4381C87.9536 17.0654 88.1399 16.6823 88.5127 16.2889C88.8854 15.8954 89.3514 15.5227 89.9105 15.1706C90.4903 14.8186 91.0908 14.5183 91.712 14.2698C92.3333 14.0214 92.9027 13.866 93.4204 13.8039C95.1599 13.8039 96.537 14.2181 97.5517 15.0464C98.587 15.8747 99.1151 16.9826 99.1358 18.37L99.0426 22.9671C99.0426 23.4848 99.053 23.9197 99.0737 24.2717C99.1151 24.6031 99.1772 24.8723 99.2601 25.0793L101.279 25.4521V26.6324L99.4464 27.409C99.0944 27.5539 98.7734 27.6575 98.4835 27.7196C98.1936 27.8024 97.9244 27.8438 97.6759 27.8438C96.9304 27.8438 96.4127 27.4504 96.1228 26.6635L95.6569 25.2968L96.2471 25.421C95.6051 26.1872 94.9528 26.7877 94.2902 27.2226C93.6275 27.6368 92.9752 27.8438 92.3333 27.8438ZM93.6689 25.3589C94.021 25.3589 94.3523 25.2864 94.6629 25.1415C94.9942 24.9965 95.2945 24.7687 95.5637 24.4581V21.3519L92.9856 21.911C92.4886 22.0146 92.1262 22.1906 91.8984 22.4391C91.6913 22.6876 91.5878 23.0189 91.5878 23.4331C91.5878 23.9301 91.7845 24.3753 92.178 24.7687C92.5921 25.1622 93.0891 25.3589 93.6689 25.3589ZM102.304 27.5953L102.211 26.2597L104.137 25.7627C104.157 25.6799 104.178 25.5142 104.199 25.2657C104.22 24.9965 104.24 24.6445 104.261 24.2096C104.282 23.754 104.292 23.2156 104.292 22.5944L104.323 20.2337C104.323 19.5711 104.302 18.9705 104.261 18.4321C104.22 17.8937 104.147 17.3864 104.044 16.9101L102.056 16.4752V15.2017L107.119 13.866L107.864 14.3941L107.678 16.1336L107.771 16.1646C108.434 15.3777 109.138 14.7875 109.883 14.3941C110.649 14.0006 111.457 13.8039 112.306 13.8039C113.155 13.8039 113.921 14.0214 114.605 14.4562C115.309 14.8704 115.868 15.4916 116.282 16.3199C116.696 17.1482 116.903 18.1629 116.903 19.364V22.5944C116.903 23.2985 116.913 23.9611 116.934 24.5823C116.955 25.1829 116.996 25.5763 117.058 25.7627L118.984 26.2597L118.891 27.5953H111.592L111.498 26.2597L113.3 25.7627C113.341 25.597 113.372 25.3589 113.393 25.0483C113.414 24.7377 113.424 24.3753 113.424 23.9611C113.445 23.547 113.455 23.1224 113.455 22.6876V19.8299C113.455 19.0223 113.321 18.37 113.051 17.873C112.803 17.3553 112.472 16.9826 112.057 16.7548C111.643 16.5063 111.188 16.382 110.691 16.382C110.111 16.382 109.573 16.5166 109.076 16.7858C108.579 17.0343 108.144 17.4071 107.771 17.9041V22.5012C107.771 23.2881 107.781 23.9922 107.802 24.6134C107.843 25.2139 107.895 25.597 107.957 25.7627L109.883 26.2597L109.79 27.5953H102.304ZM131.285 27.9681L130.57 27.5332L130.601 25.5453L130.508 25.5142C129.949 26.3839 129.338 26.9948 128.676 27.3468C128.034 27.6989 127.371 27.8749 126.688 27.8749C125.569 27.8749 124.544 27.5953 123.612 27.0362C122.681 26.4771 121.935 25.7109 121.376 24.7377C120.838 23.7437 120.568 22.5944 120.568 21.2898C120.568 20.1302 120.775 19.0948 121.19 18.1836C121.604 17.2518 122.163 16.4649 122.867 15.8229C123.592 15.181 124.389 14.6944 125.259 14.363C126.128 14.011 127.009 13.835 127.899 13.835C128.355 13.835 128.82 13.8868 129.297 13.9903C129.773 14.0731 130.166 14.2077 130.477 14.3941C130.477 14.0214 130.467 13.5761 130.446 13.0584C130.446 12.52 130.436 11.9816 130.415 11.4432C130.415 10.9048 130.405 10.4182 130.384 9.98333C130.384 9.54846 130.374 9.22749 130.353 9.02041L127.992 8.64767L127.93 7.4052L133.397 5.97636L134.142 6.47335C134.08 7.75723 134.029 8.96864 133.987 10.1076C133.946 11.2258 133.925 12.4061 133.925 13.6486L133.894 20.8239C133.894 21.88 133.925 22.7497 133.987 23.4331C134.049 24.1164 134.101 24.6341 134.142 24.9862L136.161 25.4521V26.6945L131.285 27.9681ZM127.93 25.2036C128.344 25.2036 128.779 25.0897 129.235 24.8619C129.69 24.6341 130.115 24.251 130.508 23.7126V16.9101C130.177 16.4131 129.783 16.0611 129.328 15.854C128.872 15.6469 128.417 15.5434 127.961 15.5434C126.884 15.5434 126.004 15.9679 125.321 16.8169C124.658 17.6659 124.327 18.8256 124.327 20.2958C124.327 21.8696 124.679 23.081 125.383 23.9301C126.087 24.7791 126.936 25.2036 127.93 25.2036ZM137.311 27.5953L137.218 26.2597L139.143 25.7627C139.164 25.6799 139.185 25.5038 139.205 25.2346C139.226 24.9654 139.247 24.6134 139.268 24.1785C139.288 23.723 139.299 23.1949 139.299 22.5944L139.33 20.2337C139.33 19.8195 139.319 19.4261 139.299 19.0534C139.278 18.6599 139.247 18.2872 139.205 17.9351C139.164 17.5624 139.112 17.2207 139.05 16.9101L137.062 16.4752V15.2017L142.125 13.866L142.871 14.3941L142.684 16.1336L142.778 16.1646C143.44 15.3363 144.124 14.7358 144.828 14.363C145.532 13.9903 146.267 13.8039 147.033 13.8039C147.82 13.8039 148.555 14.011 149.238 14.4252C149.942 14.8186 150.512 15.4295 150.947 16.2578C151.382 17.0654 151.599 18.1008 151.599 19.364L151.661 22.5944C151.661 23.2985 151.672 23.9611 151.692 24.5823C151.713 25.1829 151.754 25.5763 151.817 25.7627L153.587 26.2597L153.494 27.5953H146.505L146.412 26.2597L148.058 25.7627C148.099 25.597 148.131 25.3589 148.151 25.0483C148.172 24.7377 148.182 24.3753 148.182 23.9611C148.203 23.547 148.213 23.1224 148.213 22.6876L148.182 19.6125C148.182 18.8256 148.058 18.194 147.81 17.7177C147.582 17.2414 147.271 16.8997 146.878 16.6927C146.484 16.4856 146.049 16.382 145.573 16.382C145.055 16.382 144.548 16.5166 144.051 16.7858C143.554 17.0343 143.13 17.4071 142.778 17.9041V22.5012C142.778 23.2674 142.788 23.9611 142.809 24.5823C142.85 25.2036 142.902 25.597 142.964 25.7627L144.734 26.2597L144.641 27.5953H137.311ZM155.295 27.5953L155.202 26.2597L156.88 25.7627C156.921 25.597 156.952 25.3589 156.973 25.0483C156.993 24.7377 157.004 24.3753 157.004 23.9611C157.025 23.547 157.035 23.1224 157.035 22.6876L157.004 19.7988C157.004 18.9705 156.869 18.3079 156.6 17.8109C156.352 17.3139 156.02 16.9515 155.606 16.7237C155.192 16.4959 154.747 16.382 154.27 16.382C153.691 16.382 153.142 16.5166 152.624 16.7858C152.127 17.0343 151.692 17.4278 151.32 17.9662L150.543 16.7237C151.268 15.7712 152.044 15.0464 152.873 14.5494C153.701 14.0524 154.591 13.8039 155.544 13.8039C156.517 13.8039 157.366 14.0317 158.091 14.4873C158.836 14.9429 159.406 15.5848 159.799 16.4131C160.214 17.2207 160.421 18.1836 160.421 19.3019L160.452 22.5944C160.452 23.2985 160.462 23.9611 160.483 24.5823C160.524 25.1829 160.576 25.5763 160.638 25.7627L162.564 26.2597L162.471 27.5953H155.295ZM168.869 27.8438C167.938 27.8438 167.13 27.6471 166.447 27.2537C165.784 26.8602 165.277 26.3839 164.925 25.8248C164.573 25.2657 164.397 24.7273 164.397 24.2096C164.397 23.4848 164.624 22.8843 165.08 22.408C165.535 21.911 166.26 21.5072 167.254 21.1966L172.1 19.7057V18.4321C172.1 17.9765 171.955 17.552 171.665 17.1586C171.375 16.7651 170.992 16.4442 170.516 16.1957C170.039 15.9472 169.522 15.8229 168.963 15.8229C168.569 15.8229 168.29 15.9161 168.124 16.1025C167.979 16.2682 167.886 16.6098 167.844 17.1275L167.72 18.8049C166.788 19.0119 166.012 18.9912 165.391 18.7427C164.79 18.4735 164.49 18.0387 164.49 17.4381C164.49 17.0654 164.676 16.6823 165.049 16.2889C165.422 15.8954 165.888 15.5227 166.447 15.1706C167.026 14.8186 167.627 14.5183 168.248 14.2698C168.869 14.0214 169.439 13.866 169.957 13.8039C171.696 13.8039 173.073 14.2181 174.088 15.0464C175.123 15.8747 175.651 16.9826 175.672 18.37L175.579 22.9671C175.579 23.4848 175.589 23.9197 175.61 24.2717C175.651 24.6031 175.713 24.8723 175.796 25.0793L177.815 25.4521V26.6324L175.983 27.409C175.631 27.5539 175.31 27.6575 175.02 27.7196C174.73 27.8024 174.461 27.8438 174.212 27.8438C173.467 27.8438 172.949 27.4504 172.659 26.6635L172.193 25.2968L172.783 25.421C172.141 26.1872 171.489 26.7877 170.826 27.2226C170.164 27.6368 169.511 27.8438 168.869 27.8438ZM170.205 25.3589C170.557 25.3589 170.888 25.2864 171.199 25.1415C171.53 24.9965 171.831 24.7687 172.1 24.4581V21.3519L169.522 21.911C169.025 22.0146 168.662 22.1906 168.435 22.4391C168.227 22.6876 168.124 23.0189 168.124 23.4331C168.124 23.9301 168.321 24.3753 168.714 24.7687C169.128 25.1622 169.625 25.3589 170.205 25.3589ZM179.524 16.848L178.996 15.6987C180.072 15.2224 180.849 14.7047 181.325 14.1456C181.801 13.5658 182.04 12.9238 182.04 12.2198C182.04 11.8263 181.957 11.5054 181.791 11.2569C181.646 10.9877 181.46 10.7599 181.232 10.5735C181.004 10.3664 180.766 10.1697 180.518 9.98333C180.29 9.77625 180.093 9.53811 179.927 9.26891C179.782 8.979 179.71 8.61661 179.71 8.18174C179.71 7.56051 179.948 7.03246 180.424 6.5976C180.901 6.14202 181.491 5.91424 182.195 5.91424C182.65 5.91424 183.096 6.03848 183.531 6.28698C183.965 6.53547 184.317 6.92892 184.587 7.46732C184.877 7.98502 185.022 8.67873 185.022 9.54846C185.022 10.5631 184.804 11.5468 184.369 12.4993C183.955 13.4312 183.344 14.2698 182.537 15.0153C181.729 15.7608 180.725 16.3717 179.524 16.848ZM192.383 27.8438C191.555 27.8438 190.727 27.7506 189.898 27.5643C189.07 27.3779 188.376 27.1294 187.817 26.8188L187.662 23.2778H189.494L190.147 25.5142C190.892 25.9905 191.71 26.2286 192.601 26.2286C193.263 26.2286 193.781 26.0837 194.154 25.7938C194.526 25.5038 194.713 25.1208 194.713 24.6445C194.713 24.1475 194.526 23.723 194.154 23.3709C193.781 23.0189 193.025 22.6255 191.886 22.1906C190.375 21.6108 189.318 20.9999 188.718 20.3579C188.117 19.716 187.817 18.9084 187.817 17.9351C187.817 17.1275 188.066 16.4131 188.563 15.7919C189.06 15.1706 189.743 14.684 190.613 14.332C191.503 13.9799 192.528 13.8039 193.688 13.8039C194.33 13.8039 194.972 13.866 195.614 13.9903C196.276 14.0938 196.825 14.2491 197.26 14.4562L197.602 17.9351H195.8L195.086 15.7608C194.878 15.6366 194.63 15.5434 194.34 15.4813C194.05 15.3984 193.76 15.357 193.47 15.357C192.808 15.357 192.269 15.5123 191.855 15.8229C191.462 16.1128 191.265 16.4959 191.265 16.9722C191.265 17.4899 191.493 17.9248 191.948 18.2768C192.425 18.6288 193.263 19.0637 194.464 19.5814C195.831 20.1612 196.794 20.7618 197.353 21.383C197.933 22.0042 198.223 22.7704 198.223 23.6816C198.223 24.924 197.674 25.9284 196.577 26.6945C195.5 27.4607 194.102 27.8438 192.383 27.8438ZM66.1172 58.8749C64.1706 58.8749 62.4415 58.5229 60.9299 57.8188C59.4182 57.1147 58.2275 56.0793 57.3578 54.7126C56.488 53.3459 56.0532 51.6789 56.0532 49.7117C56.0532 48.2828 56.3017 46.9782 56.7986 45.7979C57.3163 44.6176 58.0411 43.6029 58.973 42.7538C59.9255 41.9048 61.0541 41.2525 62.3587 40.797C63.6633 40.3207 65.1128 40.0825 66.7073 40.0825C67.6185 40.0825 68.5503 40.1757 69.5029 40.3621C70.4555 40.5485 71.2734 40.797 71.9568 41.1076L72.1742 45.7047L70.4348 45.829L69.4097 42.6607C69.0163 42.4329 68.5503 42.2672 68.0119 42.1637C67.4942 42.0394 66.9662 41.9773 66.4278 41.9773C65.1025 41.9773 63.9946 42.2776 63.1042 42.8781C62.2345 43.4786 61.5718 44.3069 61.1162 45.363C60.6814 46.4191 60.4639 47.6409 60.4639 49.0283C60.4639 50.6849 60.7435 52.1034 61.3026 53.2838C61.8617 54.4641 62.6072 55.3649 63.539 55.9862C64.4916 56.6074 65.5477 56.918 66.7073 56.918C67.2665 56.918 67.8359 56.8352 68.4157 56.6695C68.9956 56.5038 69.4822 56.2657 69.8756 55.9551L71.056 53.1285L72.9197 53.3148L72.0189 57.3529C71.377 57.7463 70.5176 58.0983 69.4408 58.409C68.3847 58.7196 67.2768 58.8749 66.1172 58.8749ZM81.7412 58.8438C80.3331 58.8438 79.0906 58.5539 78.0138 57.9741C76.9577 57.3736 76.1294 56.5556 75.5289 55.5202C74.9284 54.4641 74.6281 53.2631 74.6281 51.9171C74.6281 50.4468 74.9594 49.1836 75.6221 48.1275C76.3054 47.0507 77.1959 46.2328 78.2934 45.6736C79.4116 45.0938 80.6023 44.8039 81.8655 44.8039C83.2115 44.8039 84.3918 45.0938 85.4065 45.6736C86.4212 46.2535 87.2081 47.0611 87.7672 48.0965C88.347 49.1319 88.6369 50.3226 88.6369 51.6686C88.6369 53.0146 88.3263 54.2363 87.7051 55.3339C87.1046 56.4107 86.2762 57.27 85.2201 57.912C84.1848 58.5332 83.0251 58.8438 81.7412 58.8438ZM82.0518 57.0422C82.6317 57.0422 83.1287 56.8662 83.5428 56.5142C83.957 56.1415 84.2779 55.6134 84.5057 54.9301C84.7335 54.2467 84.8474 53.4494 84.8474 52.5383C84.8474 50.7574 84.5368 49.3079 83.9156 48.1897C83.2943 47.0714 82.466 46.5123 81.4306 46.5123C80.5402 46.5123 79.8258 46.9368 79.2874 47.7858C78.7489 48.6349 78.4797 49.7634 78.4797 51.1716C78.4797 52.2898 78.6351 53.2941 78.9457 54.1846C79.2563 55.075 79.6808 55.7791 80.2192 56.2968C80.7576 56.7938 81.3685 57.0422 82.0518 57.0422ZM98.0176 58.8438C96.6095 58.8438 95.367 58.5539 94.2902 57.9741C93.2341 57.3736 92.4058 56.5556 91.8052 55.5202C91.2047 54.4641 90.9044 53.2631 90.9044 51.9171C90.9044 50.4468 91.2358 49.1836 91.8984 48.1275C92.5818 47.0507 93.4722 46.2328 94.5697 45.6736C95.688 45.0938 96.8787 44.8039 98.1418 44.8039C99.4878 44.8039 100.668 45.0938 101.683 45.6736C102.698 46.2535 103.484 47.0611 104.044 48.0965C104.623 49.1319 104.913 50.3226 104.913 51.6686C104.913 53.0146 104.603 54.2363 103.981 55.3339C103.381 56.4107 102.553 57.27 101.497 57.912C100.461 58.5332 99.3015 58.8438 98.0176 58.8438ZM98.3282 57.0422C98.908 57.0422 99.405 56.8662 99.8192 56.5142C100.233 56.1415 100.554 55.6134 100.782 54.9301C101.01 54.2467 101.124 53.4494 101.124 52.5383C101.124 50.7574 100.813 49.3079 100.192 48.1897C99.5707 47.0714 98.7424 46.5123 97.707 46.5123C96.8165 46.5123 96.1021 46.9368 95.5637 47.7858C95.0253 48.6349 94.7561 49.7634 94.7561 51.1716C94.7561 52.2898 94.9114 53.2941 95.222 54.1846C95.5326 55.075 95.9572 55.7791 96.4956 56.2968C97.034 56.7938 97.6448 57.0422 98.3282 57.0422ZM106.901 58.5953L106.808 57.2597L108.579 56.7627C108.62 56.5556 108.651 56.1829 108.672 55.6445C108.713 55.0854 108.734 54.4434 108.734 53.7186C108.755 52.9939 108.765 52.2587 108.765 51.5133V47.351C108.765 46.6055 108.755 45.86 108.734 45.1145C108.734 44.3483 108.724 43.6339 108.703 42.9713C108.703 42.2879 108.692 41.6874 108.672 41.1697C108.672 40.6313 108.661 40.2171 108.641 39.9272L106.342 39.6166L106.28 38.4052L111.654 36.9764L112.43 37.4733C112.389 38.0946 112.358 38.7158 112.337 39.3371C112.316 39.9376 112.296 40.5795 112.275 41.2629C112.254 41.9462 112.244 42.7228 112.244 43.5925C112.244 44.4415 112.244 45.4252 112.244 46.5434L112.213 53.7808C112.213 54.2985 112.223 54.7644 112.244 55.1785C112.265 55.5927 112.285 55.9344 112.306 56.2036C112.327 56.4728 112.337 56.6592 112.337 56.7627L114.263 57.2597L114.17 58.5953H106.901ZM122.774 58.5953H118.115C117.783 58.1398 117.483 57.767 117.214 57.4771C116.965 57.1665 116.717 56.8766 116.468 56.6074L112.586 52.3519H111.778L111.809 51.3269L112.834 51.0784L117.369 46.7608L115.319 46.4191L115.412 45.0524H122.059L122.153 46.4191L120.102 46.7919L114.791 51.3269L115.133 50.0223L119.823 55.1785C120.175 55.572 120.517 55.9344 120.848 56.2657C121.179 56.5763 121.428 56.8145 121.593 56.9801L122.867 57.2597L122.774 58.5953ZM124.513 57.7256C124.555 57.0215 124.575 56.3485 124.575 55.7066C124.596 55.0439 124.606 54.3813 124.606 53.7186C124.606 53.0353 124.606 52.3519 124.606 51.6686V47.351C124.606 46.4813 124.596 45.6426 124.575 44.835C124.575 44.0274 124.565 43.2922 124.544 42.6296C124.544 41.9669 124.534 41.3975 124.513 40.9212C124.513 40.4449 124.503 40.1032 124.482 39.8962L122.184 39.6166L122.122 38.4052L127.495 36.9764L128.272 37.4733C128.23 38.3224 128.189 39.1714 128.147 40.0204C128.127 40.8694 128.106 41.8531 128.085 42.9713C128.065 44.0688 128.034 45.4355 127.992 47.0714L128.085 47.1025C128.541 46.4813 129.152 45.9429 129.918 45.4873C130.684 45.0317 131.502 44.8039 132.372 44.8039C133.407 44.8039 134.36 45.0628 135.23 45.5805C136.099 46.0775 136.803 46.8022 137.342 47.7548C137.88 48.6866 138.149 49.8152 138.149 51.1405C138.149 52.5901 137.808 53.8947 137.124 55.0543C136.441 56.2139 135.478 57.1354 134.236 57.8188C133.014 58.5022 131.595 58.8438 129.98 58.8438C129.028 58.8438 128.085 58.7506 127.154 58.5643C126.242 58.3572 125.362 58.0776 124.513 57.7256ZM130.726 56.7938C131.761 56.7938 132.62 56.4003 133.304 55.6134C134.008 54.8058 134.37 53.584 134.391 51.9481C134.412 50.395 134.06 49.2665 133.335 48.5624C132.61 47.8376 131.761 47.4752 130.788 47.4752C130.27 47.4752 129.773 47.5891 129.297 47.8169C128.82 48.024 128.406 48.3346 128.054 48.7488V55.924C128.406 56.1932 128.81 56.4107 129.266 56.5763C129.721 56.7213 130.208 56.7938 130.726 56.7938ZM147.499 58.8438C146.091 58.8438 144.848 58.5539 143.772 57.9741C142.715 57.3736 141.887 56.5556 141.287 55.5202C140.686 54.4641 140.386 53.2631 140.386 51.9171C140.386 50.4468 140.717 49.1836 141.38 48.1275C142.063 47.0507 142.954 46.2328 144.051 45.6736C145.169 45.0938 146.36 44.8039 147.623 44.8039C148.969 44.8039 150.15 45.0938 151.164 45.6736C152.179 46.2535 152.966 47.0611 153.525 48.0965C154.105 49.1319 154.395 50.3226 154.395 51.6686C154.395 53.0146 154.084 54.2363 153.463 55.3339C152.862 56.4107 152.034 57.27 150.978 57.912C149.942 58.5332 148.783 58.8438 147.499 58.8438ZM147.81 57.0422C148.389 57.0422 148.886 56.8662 149.301 56.5142C149.715 56.1415 150.036 55.6134 150.263 54.9301C150.491 54.2467 150.605 53.4494 150.605 52.5383C150.605 50.7574 150.295 49.3079 149.673 48.1897C149.052 47.0714 148.224 46.5123 147.188 46.5123C146.298 46.5123 145.583 46.9368 145.045 47.7858C144.507 48.6349 144.237 49.7634 144.237 51.1716C144.237 52.2898 144.393 53.2941 144.703 54.1846C145.014 55.075 145.439 55.7791 145.977 56.2968C146.515 56.7938 147.126 57.0422 147.81 57.0422ZM163.775 58.8438C162.367 58.8438 161.125 58.5539 160.048 57.9741C158.992 57.3736 158.163 56.5556 157.563 55.5202C156.962 54.4641 156.662 53.2631 156.662 51.9171C156.662 50.4468 156.993 49.1836 157.656 48.1275C158.34 47.0507 159.23 46.2328 160.327 45.6736C161.446 45.0938 162.636 44.8039 163.9 44.8039C165.246 44.8039 166.426 45.0938 167.441 45.6736C168.455 46.2535 169.242 47.0611 169.801 48.0965C170.381 49.1319 170.671 50.3226 170.671 51.6686C170.671 53.0146 170.36 54.2363 169.739 55.3339C169.139 56.4107 168.31 57.27 167.254 57.912C166.219 58.5332 165.059 58.8438 163.775 58.8438ZM164.086 57.0422C164.666 57.0422 165.163 56.8662 165.577 56.5142C165.991 56.1415 166.312 55.6134 166.54 54.9301C166.768 54.2467 166.881 53.4494 166.881 52.5383C166.881 50.7574 166.571 49.3079 165.95 48.1897C165.328 47.0714 164.5 46.5123 163.465 46.5123C162.574 46.5123 161.86 46.9368 161.321 47.7858C160.783 48.6349 160.514 49.7634 160.514 51.1716C160.514 52.2898 160.669 53.2941 160.98 54.1846C161.29 55.075 161.715 55.7791 162.253 56.2968C162.792 56.7938 163.403 57.0422 164.086 57.0422ZM172.659 58.5953L172.566 57.2597L174.336 56.7627C174.378 56.5556 174.409 56.1829 174.429 55.6445C174.471 55.0854 174.492 54.4434 174.492 53.7186C174.512 52.9939 174.523 52.2587 174.523 51.5133V47.351C174.523 46.6055 174.512 45.86 174.492 45.1145C174.492 44.3483 174.481 43.6339 174.461 42.9713C174.461 42.2879 174.45 41.6874 174.429 41.1697C174.429 40.6313 174.419 40.2171 174.398 39.9272L172.1 39.6166L172.038 38.4052L177.411 36.9764L178.188 37.4733C178.147 38.0946 178.115 38.7158 178.095 39.3371C178.074 39.9376 178.053 40.5795 178.033 41.2629C178.012 41.9462 178.002 42.7228 178.002 43.5925C178.002 44.4415 178.002 45.4252 178.002 46.5434L177.971 53.7808C177.971 54.2985 177.981 54.7644 178.002 55.1785C178.022 55.5927 178.043 55.9344 178.064 56.2036C178.084 56.4728 178.095 56.6592 178.095 56.7627L180.021 57.2597L179.927 58.5953H172.659ZM188.532 58.5953H183.872C183.541 58.1398 183.241 57.767 182.971 57.4771C182.723 57.1665 182.474 56.8766 182.226 56.6074L178.343 52.3519H177.536L177.567 51.3269L178.592 51.0784L183.127 46.7608L181.077 46.4191L181.17 45.0524H187.817L187.91 46.4191L185.86 46.7919L180.549 51.3269L180.89 50.0223L185.581 55.1785C185.933 55.572 186.274 55.9344 186.606 56.2657C186.937 56.5763 187.186 56.8145 187.351 56.9801L188.625 57.2597L188.532 58.5953Z" fill="#9D3618"/>
<path d="M42.0891 21.3364C43.2693 19.4591 43.7406 17.1021 43.2206 14.7473C42.1776 10.025 37.5699 7.03055 32.9213 8.05395C32.1384 8.22658 31.4055 8.51019 30.7284 8.87514C29.6642 7.62989 28.3502 6.63594 26.8787 5.96763C24.8163 5.03082 22.4416 4.72802 20.0752 5.2507C17.7085 5.7717 15.6813 7.04516 14.2043 8.76231C13.1501 9.98756 12.3761 11.4419 11.9334 13.0195C11.1665 12.9729 10.383 13.0237 9.60022 13.1963C4.95202 14.2221 2.02961 18.8778 3.07017 23.6006C3.58874 25.9558 5.00763 27.8959 6.86786 29.1028C8.36412 30.0766 10.1663 30.5758 12.0215 30.4701L13.8358 38.6977C12.979 41.3068 12.7756 44.1738 13.4124 47.0619C15.2864 55.5605 23.5869 60.9555 31.9518 59.111C40.3159 57.2667 45.5777 48.881 43.7037 40.3825C43.0669 37.4943 41.6765 34.9788 39.802 32.972L37.9877 24.7444C39.7164 24.0607 41.1413 22.8498 42.0891 21.3364ZM31.1304 55.386C24.9423 56.7506 18.7907 52.8573 17.1939 46.6751C19.463 45.9241 24.5992 43.6082 27.7796 37.4146L28.2125 37.3192L27.8223 37.4813C31.7716 40.2022 37.4487 41.4249 40.1529 41.8791C41.1504 48.0698 37.2323 54.0405 31.1304 55.386ZM7.32228 19.0404C8.00304 17.961 9.07393 17.155 10.408 16.86C11.2584 16.6733 12.095 16.722 12.8766 16.9616L15.0242 17.6213L15.2397 15.3609C15.3865 13.8217 16.0126 12.3792 16.995 11.2392C17.9782 10.099 19.305 9.26312 20.8831 8.91512C22.4613 8.56712 24.0158 8.76752 25.3881 9.38844C26.7581 10.0098 27.9329 11.0552 28.7125 12.3901L29.8589 14.351L31.5304 12.8484C32.1404 12.3019 32.8781 11.9061 33.729 11.7176C35.0628 11.4242 36.3734 11.7052 37.4449 12.3981C38.5133 13.0952 39.3152 14.1879 39.6147 15.5424C39.9124 16.8966 39.6445 18.2251 38.9683 19.3068C38.2879 20.3877 37.2169 21.1931 35.8836 21.488C35.8147 21.504 35.7008 21.5208 35.5317 21.5446L33.5617 21.8245L35.9416 32.6174L17.1888 36.7525L14.8088 25.9588L12.9031 26.5344C12.7412 26.5835 12.63 26.6163 12.5623 26.6305C11.2279 26.9239 9.9175 26.6436 8.84558 25.9491C7.77725 25.2521 6.97531 24.1595 6.67602 22.8056C6.37812 21.4507 6.64618 20.1222 7.32228 19.0404Z" fill="#14BBBB"/>
</svg>
