<svg width="21" height="17" viewBox="0 0 21 17" fill="none" xmlns="http://www.w3.org/2000/svg">
<path d="M20.5704 9.41164C21.1432 8.86896 21.1432 7.98765 20.5704 7.44497L13.2392 0.498666C12.6664 -0.0440128 11.7363 -0.0440129 11.1635 0.498666C10.5908 1.04135 10.5908 1.92266 11.1635 2.46534L15.9976 7.04121L1.93993 7.04121C1.12891 7.04121 0.473685 7.66204 0.473685 8.43047C0.473685 9.1989 1.12891 9.81973 1.93993 9.81973L15.993 9.81973L11.1681 14.3956C10.5954 14.9383 10.5954 15.8196 11.1681 16.3623C11.7409 16.905 12.671 16.905 13.2438 16.3623L20.575 9.41598L20.5704 9.41164Z" fill="white"/>
</svg>
