<svg width="42" height="55" viewBox="0 0 42 55" fill="none" xmlns="http://www.w3.org/2000/svg">
<path d="M39.9714 16.455C41.1483 14.583 41.6183 12.2326 41.0998 9.88436C40.0596 5.17526 35.4648 2.18919 30.8292 3.20973C30.0485 3.38188 29.3177 3.6647 28.6425 4.02863C27.5812 2.78686 26.271 1.79569 24.8035 1.12924C22.7469 0.195055 20.3788 -0.106895 18.0191 0.414324C15.659 0.933865 13.6374 2.20376 12.1646 3.91612C11.1134 5.13793 10.3415 6.58824 9.90003 8.16138C9.13525 8.11496 8.35396 8.16558 7.57338 8.3377C2.93818 9.36068 0.0239395 14.0033 1.06158 18.713C1.57871 21.0615 2.99363 22.9962 4.84866 24.1997C6.34073 25.1708 8.13782 25.6687 9.9879 25.5632L11.7971 33.7678C10.9427 36.3696 10.7398 39.2286 11.3749 42.1086C13.2437 50.5835 21.521 55.9634 29.8625 54.1241C38.2031 52.2849 43.4503 43.9227 41.5815 35.4479C40.9465 32.5678 39.56 30.0593 37.6907 28.0581L35.8815 19.8535C37.6054 19.1717 39.0263 17.9642 39.9714 16.455ZM29.0434 50.4095C22.8725 51.7702 16.7382 47.8878 15.1459 41.7229C17.4086 40.974 22.5304 38.6646 25.702 32.4883L26.1337 32.3931L25.7445 32.5548C29.6827 35.2681 35.344 36.4873 38.0406 36.9403C39.0353 43.1137 35.1282 49.0677 29.0434 50.4095ZM5.30181 14.1655C5.98066 13.0891 7.04856 12.2854 8.37888 11.9911C9.22697 11.805 10.0612 11.8535 10.8406 12.0925L12.9822 12.7503L13.1971 10.4963C13.3434 8.96137 13.9678 7.52292 14.9475 6.38605C15.9279 5.24902 17.251 4.41552 18.8247 4.0685C20.3985 3.72147 21.9486 3.92131 23.3171 4.54049C24.6833 5.16008 25.8548 6.20263 26.6322 7.53374L27.7754 9.48919L29.4423 7.9908C30.0505 7.44581 30.7862 7.05116 31.6347 6.86317C32.9647 6.57055 34.2717 6.85075 35.3402 7.54178C36.4056 8.23693 37.2053 9.3265 37.5039 10.6773C37.8008 12.0276 37.5336 13.3525 36.8594 14.4311C36.1809 15.509 35.1128 16.3122 33.7832 16.6062C33.7145 16.6221 33.601 16.6389 33.4323 16.6627L31.4679 16.9418L33.8411 27.7045L15.1408 31.828L12.7673 21.0645L10.8671 21.6385C10.7056 21.6875 10.5947 21.7202 10.5272 21.7343C9.19653 22.0269 7.88977 21.7474 6.82085 21.0548C5.7555 20.3598 4.9558 19.2702 4.65735 17.9202C4.36029 16.5691 4.62759 15.2442 5.30181 14.1655Z" fill="#14BBBB"/>
</svg>
